<svg width="100" height="109" viewBox="0 0 100 109" fill="none" xmlns="http://www.w3.org/2000/svg">
<rect x="30.9531" width="8.28415" height="28.4028" rx="2.74448" fill="#FE7011"/>
<rect x="3.7337" y="14.2013" width="8.28415" height="28.4028" rx="2.74448" fill="#FE7011"/>
<rect x="58.1732" y="20.1187" width="8.28415" height="28.4028" rx="2.74448" fill="#FE7011"/>
<path fill-rule="evenodd" clip-rule="evenodd" d="M31.3308 104.729C30.0041 104.768 27.6586 104.568 25.9265 104.268C17.3001 102.775 9.80473 97.1027 6.04705 89.2246C4.59366 86.1774 4.23262 84.9326 3.71814 81.193C3.3603 78.5922 3.27304 77.3722 3.3544 76.111C4.09433 64.647 11.2524 55.2608 22.1313 51.489C24.345 50.7215 29.7245 49.9866 32.063 50.1324C43.5147 50.8459 53.0344 58.0263 56.7128 68.7243C57.5011 71.0169 58.1106 74.8279 58.0834 77.2947C58.0567 79.7258 57.6357 82.6455 57.0268 84.6249C56.787 85.4047 56.5953 86.0767 56.601 86.1183C56.6264 86.304 60.6765 87.4448 61.7731 87.5751C63.4165 87.7701 67.4374 87.3739 69.1854 86.8446C71.8747 86.0303 74.574 84.5174 76.579 82.7007C77.0748 82.2513 78.2015 80.9286 79.0827 79.7612L80.6851 77.6384L80.0493 77.182C79.6998 76.9312 79.2691 76.5226 79.0923 76.2743C78.3997 75.3016 78.5775 73.6004 79.4579 72.7754C79.7326 72.5182 82.478 71.3308 86.5468 69.7094C92.4833 67.3438 93.2644 67.0729 93.9123 67.1558C94.6989 67.2564 95.6428 67.834 95.9429 68.3986C96.0713 68.6398 96.1055 68.3162 96.0502 67.3882C95.989 66.364 96.0606 66.675 96.3368 68.6337C96.5392 70.0695 96.6216 71.0198 96.5203 70.7456C96.3828 70.3744 96.1617 71.8582 95.6547 76.5526C95.28 80.0208 94.8764 83.2095 94.7579 83.6388C94.2145 85.6056 92.1963 86.2435 90.4204 85.0097L89.5283 84.39L87.5171 86.8938C85.0403 89.9774 83.1751 91.7528 80.5448 93.5301C76.9041 95.9898 73.4879 97.3738 69.0997 98.1668C64.1721 99.0572 60.025 98.7887 55.2696 97.2715C54.1045 96.8998 52.673 96.3726 52.0883 96.1L51.0255 95.6045L49.6437 96.9462C45.2945 101.169 40.0753 103.704 34.2368 104.429C32.9916 104.583 31.6839 104.718 31.3308 104.729ZM30.717 93.7441C26.8878 93.6633 23.7316 92.5878 20.8522 90.3826C17.1606 87.5554 15.1976 84.1904 14.5731 79.6185C13.9517 75.0691 14.9853 71.1217 17.7238 67.5848C19.836 64.8569 21.8235 63.3699 25.0482 62.1052C26.7045 61.4555 30.3257 60.9603 32.0998 61.1408C36.7227 61.6111 40.7293 63.7482 43.5651 67.2562C46.6257 71.0422 47.8126 76.4843 46.6332 81.3246C45.4133 86.3313 41.6052 90.6798 36.8005 92.5528C35.122 93.2069 32.2175 93.7757 30.717 93.7441ZM3.68034 81.1064C3.48409 79.6697 3.43201 79.0781 3.5645 79.7918C3.6968 80.5056 3.85734 81.6809 3.9213 82.404C3.98508 83.1271 3.87658 82.5431 3.68034 81.1064Z" fill="#FE7011"/>
</svg>
