<svg width="122" height="109" viewBox="0 0 122 109" fill="none" xmlns="http://www.w3.org/2000/svg">
<path fill-rule="evenodd" clip-rule="evenodd" d="M56.9634 15.0691C55.6574 14.3822 53.217 13.4366 51.3405 12.8902C41.995 10.1698 31.7387 12.1755 24.1386 18.2096C21.199 20.5436 20.2306 21.6107 17.8907 25.0947C16.2633 27.5178 15.5805 28.6938 15.0459 29.9932C10.1873 41.8053 12.754 54.6757 21.7785 63.7551C23.6149 65.6027 28.6294 68.9634 31.0363 69.9596C42.8232 74.8386 55.8379 72.3148 64.7356 63.4254C66.6425 61.5204 69.1121 58.0114 70.2895 55.5342C71.4499 53.0928 72.455 49.9709 72.8133 47.6965C72.9546 46.8005 73.0912 46.0358 73.1172 45.997C73.2332 45.8238 77.8356 46.662 78.9945 47.0673C80.7313 47.675 84.554 50.034 86.0416 51.4162C88.3302 53.5428 90.2876 56.3719 91.4033 59.1655C91.679 59.8565 92.1586 61.7277 92.4687 63.3241L93.0327 66.2269L92.1749 66.3723C91.7032 66.4521 91.0736 66.65 90.7757 66.8117C89.6089 67.4451 88.9559 69.2311 89.4325 70.485C89.5813 70.876 91.7437 73.4026 95.0161 77.0088C99.7906 82.2703 100.439 82.9224 101.126 83.1559C101.961 83.4395 103.186 83.3234 103.761 82.9061C104.007 82.7278 103.883 83.0678 103.375 83.9677C102.814 84.9608 103.037 84.6851 104.269 82.8636C105.173 81.5282 105.719 80.6193 105.484 80.8437C105.165 81.1473 105.669 79.5573 107.455 74.6207C108.774 70.9737 109.928 67.5916 110.019 67.1049C110.437 64.8751 108.732 63.2525 106.356 63.6177L105.162 63.801L104.376 60.3181C103.408 56.0287 102.412 53.3447 100.652 50.2851C98.2168 46.0506 95.4803 43.0001 91.4844 40.0653C86.9973 36.77 82.7239 35.0131 77.2332 34.2066C75.8879 34.009 74.2007 33.8365 73.4836 33.8234L72.1801 33.7993L71.455 31.7844C69.173 25.4425 65.1975 20.3622 59.7195 16.7878C58.5512 16.0255 57.3109 15.2521 56.9634 15.0691ZM50.9868 25.7413C47.1225 23.9523 43.4448 23.4855 39.492 24.2821C34.4242 25.3035 30.8204 27.7061 27.9643 31.9677C25.1222 36.2085 24.2271 40.6559 25.2355 45.5259C26.0133 49.282 27.2723 51.7377 29.8758 54.5755C31.2129 56.0332 34.5882 58.296 36.4483 58.982C41.2955 60.7695 46.3409 60.5912 50.8864 58.472C55.7921 56.1848 59.6348 51.3286 60.8202 45.918C62.0464 40.3215 60.3661 34.1185 56.4814 29.9017C55.1243 28.4288 52.501 26.4424 50.9868 25.7413ZM17.8107 25.1628C16.9131 26.502 16.5722 27.0675 17.0531 26.4193C17.5337 25.771 18.268 24.6754 18.6849 23.9844C19.1017 23.2933 18.7082 23.8236 17.8107 25.1628Z" fill="#FE7011"/>
</svg>
