<svg width="58" height="107" viewBox="0 0 58 107" fill="none" xmlns="http://www.w3.org/2000/svg">
<g id="Group 42">
<path id="Vector" fill-rule="evenodd" clip-rule="evenodd" d="M13.0551 6.24442V9.302C13.0551 11.062 14.4819 12.4888 16.2419 12.4888C18.002 12.4888 19.4288 11.062 19.4288 9.302V6.24442V3.18684C19.4288 1.4268 18.002 0 16.2419 0C14.4819 0 13.0551 1.4268 13.0551 3.18684V6.24442ZM25.8025 6.24442V9.302C25.8025 11.062 27.2293 12.4888 28.9893 12.4888C30.7494 12.4888 32.1762 11.062 32.1762 9.302V6.24442V3.18684C32.1762 1.4268 30.7494 0 28.9893 0C27.2293 0 25.8025 1.4268 25.8025 3.18684V6.24442ZM38.5498 6.24442V9.302C38.5498 11.062 39.9766 12.4888 41.7367 12.4888C43.4967 12.4888 44.9235 11.062 44.9235 9.302V6.24442V3.18684C44.9235 1.4268 43.4967 0 41.7367 0C39.9766 0 38.5498 1.4268 38.5498 3.18684V6.24442ZM26.0149 19.0569C22.2013 19.8593 18.4326 22.7588 16.6953 26.2266C15.5708 28.4712 15.1062 30.5727 15.2402 32.8071L15.2645 33.2118C15.3105 33.9784 14.8591 34.6878 14.1452 34.9708C8.46159 37.2242 3.76355 42.0387 1.68318 47.7411C0.382524 51.306 0.309651 52.2398 0.308589 65.3062L0.308029 73.0142C0.307869 75.2235 2.09878 77.0145 4.30803 77.0145H6.68142H9.05511C11.2642 77.0145 13.0551 78.8054 13.0551 81.0145V91.793V102.571C13.0551 104.781 14.846 106.571 17.0551 106.571H28.9893H40.9235C43.1327 106.571 44.9235 104.781 44.9235 102.571V91.793V81.0145C44.9235 78.8054 46.7144 77.0145 48.9235 77.0145H51.3078H53.6675C55.8863 77.0145 57.6812 75.2085 57.6674 72.9897L57.6146 64.4736C57.5288 50.6733 57.5594 51.0267 56.1333 47.3071C54.1148 42.0422 49.2776 37.1252 44.1126 35.0882C43.2321 34.741 42.6748 33.8669 42.7316 32.9221L42.7382 32.8119C43.1183 26.4759 38.287 20.3633 31.8575 19.0453C30.0236 18.6694 27.8359 18.6737 26.0149 19.0569ZM26.9255 25.2672C24.7298 25.9701 23.1871 27.3027 22.2122 29.3392C21.7524 30.2996 21.6596 30.7916 21.6596 32.2672C21.6596 33.8487 21.7346 34.1901 22.3522 35.419C23.158 37.0232 24.31 38.1238 25.9894 38.8955C26.9861 39.3532 27.4822 39.4439 28.9893 39.4439C30.4965 39.4439 30.9926 39.3532 31.9892 38.8955C33.6687 38.1238 34.8206 37.0232 35.6264 35.419C36.2441 34.1901 36.3191 33.8487 36.3191 32.2672C36.3191 30.7858 36.2268 30.3008 35.7592 29.3238C34.5257 26.7467 32.1806 25.1823 29.3547 25.0516C28.4303 25.0087 27.4652 25.0944 26.9255 25.2672ZM16.0998 40.8937C12.6491 42.4308 9.56573 45.4602 8.06239 48.7908C6.84119 51.4961 6.82738 51.6289 6.7373 61.5596L6.68268 67.5694C6.66666 69.3323 8.09139 70.7701 9.85445 70.7701C11.6221 70.7701 13.0551 69.3371 13.0551 67.5694V61.4035V55.2237C13.0551 53.4636 14.4819 52.0368 16.2419 52.0368C18.002 52.0368 19.4288 53.4636 19.4288 55.2237V76.1819V97.1402C19.4288 98.9002 20.8556 100.327 22.6156 100.327C24.3757 100.327 25.8025 98.9002 25.8025 97.1402V85.5485V73.9569C25.8025 72.1969 27.2293 70.7701 28.9893 70.7701C30.7494 70.7701 32.1762 72.1969 32.1762 73.9569V85.5485V97.1402C32.1762 98.9002 33.603 100.327 35.363 100.327C37.123 100.327 38.5498 98.9002 38.5498 97.1402V76.1819V55.2237C38.5498 53.4636 39.9766 52.0368 41.7367 52.0368C43.4967 52.0368 44.9235 53.4636 44.9235 55.2237V61.4035V67.5694C44.9235 69.3371 46.3565 70.7701 48.1242 70.7701C49.8872 70.7701 51.312 69.3323 51.296 67.5694L51.2413 61.5596C51.1689 53.5711 51.1085 52.1834 50.7867 51.1002C49.8568 47.9715 47.7643 44.8566 45.3399 42.992C44.0068 41.9667 41.0609 40.3806 40.4896 40.3806C40.3251 40.3806 39.4511 41.0727 38.5475 41.9184C33.0443 47.0696 24.9344 47.0696 19.4311 41.9184C18.5276 41.0727 17.6554 40.386 17.4931 40.3927C17.3308 40.3991 16.7038 40.6247 16.0998 40.8937Z" fill="#FE7011"/>
</g>
</svg>
