<svg width="133" height="49" viewBox="0 0 133 49" fill="none" xmlns="http://www.w3.org/2000/svg">
<g clip-path="url(#clip0_14_443)">
<path d="M27.4111 48.0074C27.4111 46.4379 27.4162 44.8685 27.4099 43.2991C27.406 42.3115 27.2442 42.0884 26.2793 41.9933C25.8243 41.9489 25.9314 41.6865 25.9301 41.4482C25.925 39.2512 25.9275 37.0543 25.9275 34.8573C25.9275 32.5399 25.9301 30.2212 25.9263 27.9038C25.9237 26.7908 25.6752 26.5448 24.5586 26.5448C21.6207 26.5436 18.6828 26.5524 15.7436 26.5347C15.7092 26.5347 15.6761 26.536 15.6417 26.5385C15.2491 26.5639 14.6615 26.754 14.311 27.3207C14.0561 31.6423 14.037 35.9526 13.1193 40.183C12.9 41.1959 12.4348 41.9996 11.2775 42.1264C10.8301 42.1759 10.9767 42.4839 10.9767 42.7172C10.9754 44.5757 10.9627 46.4341 11.0009 48.2913C11.0073 48.5791 10.969 48.7553 10.848 48.8555H16.7225C16.6511 48.7794 16.6218 48.6577 16.6282 48.4739C16.655 47.7285 16.655 46.9805 16.6282 46.2351C16.6142 45.8637 16.7709 45.8003 17.0972 45.8028C19.0588 45.8142 21.0217 45.8142 22.9833 45.8028C23.3172 45.8003 23.4574 45.8776 23.4446 46.2414C23.4179 46.9869 23.4166 47.7348 23.4446 48.4802C23.451 48.6641 23.4204 48.782 23.3503 48.8568H27.5539C27.4124 48.7452 27.4111 48.5094 27.4111 48.0086V48.0074ZM21.2817 41.9413C19.8032 41.9223 18.3247 41.9337 16.7633 41.9337C17.6389 39.2956 17.6925 36.6334 17.9168 33.9952C18.0047 32.962 18.0468 31.9238 18.0748 30.8868C18.085 30.4938 18.1857 30.3277 18.614 30.3429C19.4629 30.3734 20.3143 30.3721 21.1631 30.3429C21.5889 30.329 21.6908 30.4811 21.6908 30.8842C21.6819 34.4085 21.6908 37.9328 21.7036 41.4571C21.7036 41.7664 21.6704 41.9451 21.283 41.9401L21.2817 41.9413Z" fill="#010101"/>
<path d="M15.7449 26.5334C18.6828 26.5499 21.6208 26.541 24.5599 26.5436C25.6765 26.5436 25.925 26.7895 25.9276 27.9026C25.9314 30.22 25.9288 32.5386 25.9288 34.856C25.9288 37.053 25.9263 39.2499 25.9314 41.4469C25.9314 41.6852 25.8256 41.9477 26.2806 41.992C27.2455 42.0858 27.4061 42.309 27.4112 43.2978C27.4175 44.8672 27.4124 46.4367 27.4124 48.0061C27.4124 48.5069 27.4137 48.7414 27.5552 48.8542H85.2606V48.8821C86.1388 48.6222 86.8462 47.9402 87.1495 47.0338C87.4083 46.2617 87.2375 45.5315 86.9494 44.7734C88.0902 44.6657 88.9658 44.2283 89.5139 43.2636C90.0632 42.295 89.988 41.3163 89.5177 40.2755C89.7229 40.3998 89.9268 40.4758 90.1308 40.5202C90.2837 40.5532 90.4354 40.5671 90.5883 40.5696C91.0421 40.576 91.492 40.4758 91.9407 40.4391C91.9572 40.3161 92.0006 40.2464 92.0732 40.24C92.1127 40.2362 92.1599 40.2527 92.2173 40.2844C92.1892 40.2121 92.202 40.1779 92.2364 40.164C92.2721 40.1488 92.3281 40.1538 92.3779 40.1513C92.4097 40.1082 92.4429 40.0651 92.4773 40.022C92.5499 39.9294 92.6264 39.8382 92.7003 39.7456C92.8877 39.5162 93.0687 39.2829 93.1974 39.0243C93.5709 38.2675 93.4855 37.4789 93.1184 36.6663C94.3114 36.7665 95.2265 36.3088 95.9314 35.4189C96.6834 34.4681 96.6044 33.4324 96.1583 32.3675C98.246 32.4537 99.555 31.3951 99.5525 29.6153C99.5525 29.1766 99.6761 29.022 100.073 28.8724C101.404 28.3678 102.114 27.0278 101.831 25.6676C101.56 24.3656 100.327 23.3248 98.9878 23.4579C98.2193 23.534 97.4724 23.4769 96.714 23.4769C87.2681 23.4744 77.8221 23.4769 68.3762 23.4668C67.8906 23.4668 67.6344 23.5302 67.484 24.0855C67.0991 25.499 65.8423 26.3889 64.4123 26.3978C62.9771 26.4067 61.691 25.5243 61.301 24.1324C61.143 23.567 60.9084 23.463 60.3667 23.463C47.0601 23.4795 33.7535 23.4757 20.4469 23.4769C20.1065 23.4769 19.765 23.4668 19.4272 23.4998C19.2934 23.5124 19.1608 23.5289 19.0321 23.5479C18.9887 23.5543 18.9467 23.5632 18.9046 23.5708C18.8192 23.5847 18.7338 23.5986 18.651 23.6164C18.6 23.6265 18.5503 23.6405 18.5006 23.6532C18.4279 23.6709 18.354 23.6861 18.2826 23.7064C18.2304 23.7203 18.1794 23.7381 18.1284 23.7533C18.0608 23.7736 17.992 23.7926 17.927 23.8154C17.8748 23.8332 17.825 23.8535 17.7741 23.8725C17.7103 23.8966 17.6453 23.9194 17.5829 23.9447C17.5319 23.9663 17.4822 23.9891 17.4325 24.0119C17.3713 24.0385 17.3101 24.0652 17.2515 24.0943C17.2018 24.1184 17.1533 24.1463 17.1036 24.1717C17.0463 24.2021 16.9876 24.2312 16.9316 24.2629C16.8831 24.2908 16.836 24.3213 16.7875 24.3504C16.7327 24.3834 16.6766 24.4163 16.6231 24.4518C16.576 24.4823 16.5301 24.5165 16.4842 24.5482C16.4319 24.5849 16.3784 24.6204 16.3274 24.6597C16.2815 24.694 16.2382 24.7307 16.1936 24.7662C16.1439 24.8068 16.0929 24.8448 16.0432 24.8867C15.9986 24.9234 15.9565 24.964 15.9132 25.0033C15.8647 25.0464 15.8163 25.0882 15.7704 25.1339C15.7284 25.1744 15.6863 25.2175 15.6455 25.2594C15.5996 25.305 15.5537 25.3506 15.5091 25.3988C15.4683 25.4432 15.4288 25.4888 15.388 25.5345C15.3447 25.5839 15.3001 25.6321 15.258 25.6841C15.2185 25.731 15.1803 25.7804 15.1421 25.8286C15.1 25.8805 15.0579 25.9325 15.0171 25.987C14.9789 26.0377 14.9432 26.0897 14.905 26.1417C14.8655 26.1975 14.8247 26.252 14.7864 26.309C14.7508 26.3623 14.7151 26.4181 14.6794 26.4726C14.6475 26.522 14.6157 26.5702 14.5851 26.6209C14.58 26.6336 14.571 26.6551 14.5596 26.6856C14.9713 26.6691 15.3052 26.5588 15.6493 26.5398C15.685 26.5372 15.7194 26.536 15.7513 26.536L15.7449 26.5334ZM74.8485 26.5664C77.3454 26.5715 79.8513 26.375 82.3393 26.6627C84.3276 26.8935 85.8699 27.8557 86.5619 29.8257C87.2757 31.8579 86.8449 33.6656 85.3396 35.2173C85.2733 35.2858 85.2211 35.3669 85.1624 35.443C87.5293 36.9947 87.8607 39.6087 87.189 41.8551C86.4906 44.1903 84.529 45.6824 81.9161 45.7749C79.6371 45.8548 77.3544 45.8117 75.0729 45.8015C74.3285 45.7977 74.0277 45.4757 74.0264 44.7176C74.0201 39.0218 74.0239 33.3271 74.0201 27.6313C74.0201 27.0507 74.2265 26.5664 74.8485 26.5677V26.5664ZM59.0259 26.5436C59.5842 26.5436 60.1424 26.5347 60.7007 26.5461C61.4947 26.5626 61.7828 26.8491 61.7841 27.6554C61.7892 30.7689 61.7866 33.8811 61.7866 37.0568C62.0556 36.9262 62.1078 36.6841 62.2098 36.4977C63.8119 33.5832 65.4256 30.6751 66.9933 27.7428C67.4432 26.8998 68.0308 26.5093 69.011 26.5296C71.2198 26.574 71.2198 26.5423 71.2198 28.7279C71.2198 33.9407 71.2198 39.1549 71.2198 44.3677C71.2198 45.5835 70.9968 45.8053 69.7846 45.8091C69.3474 45.8091 68.9103 45.8091 68.4744 45.8091C67.303 45.8053 67.0558 45.5683 67.0545 44.4223C67.0519 41.7917 67.0545 39.1612 67.0545 36.5294C67.0545 36.1694 67.0545 35.8106 67.0545 35.4506C67.006 35.4379 66.9589 35.424 66.9104 35.4113C65.3504 38.2561 63.6972 41.0552 62.2684 43.9633C61.5496 45.4263 60.6484 46.0031 59.0501 45.8332C57.8494 45.7052 57.6162 45.5848 57.6162 44.3665C57.6149 38.8874 57.6149 33.4096 57.6162 27.9305C57.6162 26.7565 57.8341 26.5474 59.0272 26.5448L59.0259 26.5436ZM46.0557 27.7365C46.3043 26.7477 46.5528 26.5461 47.5534 26.5436C48.5233 26.541 49.4946 26.5575 50.4645 26.5385C51.1158 26.5258 51.4944 26.7794 51.6614 27.4335C53.122 33.1192 54.6044 38.7999 56.0689 44.4844C56.3085 45.4136 55.9924 45.7889 55.0199 45.8066C54.6808 45.8129 54.3405 45.8066 54.0015 45.8066C52.5994 45.8294 52.1546 45.8206 51.8972 45.2602C51.8729 45.207 51.85 45.1487 51.8283 45.0853C51.7302 44.7988 51.6524 44.402 51.5339 43.8543C51.4039 43.2483 51.3975 42.4649 51.0113 42.1049C50.6073 41.7271 49.8094 42.0326 49.1836 42.0187C48.6508 42.006 48.1091 42.0884 47.5852 42.0199C46.8358 41.9223 46.586 42.2583 46.4891 42.9301C46.3897 43.6185 46.1934 44.2929 46.0366 44.9724C45.9117 45.5176 45.5612 45.7952 45.0029 45.8015C44.3236 45.8091 43.6442 45.8117 42.9649 45.8041C41.9095 45.7927 41.61 45.4149 41.8649 44.3956C42.4933 41.8741 43.1306 39.3552 43.7653 36.8349C44.5288 33.8013 45.2948 30.7689 46.0583 27.7352L46.0557 27.7365ZM29.4798 36.1783C29.4798 33.4019 29.4798 30.6244 29.4798 27.8481C29.4798 26.7705 29.7118 26.5448 30.8156 26.5448C32.7096 26.5448 34.6049 26.5081 36.4977 26.5626C40.6133 26.6792 43.2427 30.4266 41.9758 34.3198C41.248 36.5573 39.0787 38.1483 36.5729 38.2611C35.8209 38.2954 35.0663 38.303 34.3156 38.2687C33.8695 38.2484 33.7433 38.3689 33.7509 38.8227C33.779 40.6812 33.765 42.541 33.7624 44.4007C33.7611 45.5835 33.5381 45.8053 32.368 45.8091C31.8098 45.8104 31.2515 45.8155 30.6919 45.8079C29.7641 45.7939 29.4836 45.515 29.4824 44.5833C29.4773 41.7829 29.4811 38.9812 29.4811 36.1808L29.4798 36.1783Z" fill="#FCFCFC"/>
<path d="M14.673 26.4713C14.7087 26.4168 14.7431 26.361 14.78 26.3078C14.7443 26.361 14.7087 26.4168 14.673 26.4713Z" fill="#FCFCFC"/>
<path d="M16.4791 24.5469C16.5249 24.5139 16.5708 24.481 16.618 24.4506C16.5708 24.481 16.5249 24.5152 16.4791 24.5469Z" fill="#FCFCFC"/>
<path d="M16.7811 24.3491C16.8296 24.32 16.8754 24.2896 16.9252 24.2617C16.8767 24.2896 16.8296 24.32 16.7811 24.3491Z" fill="#FCFCFC"/>
<path d="M91.9382 40.4391C91.9382 40.4391 91.9355 40.4494 91.9355 40.4545C91.9355 40.4545 91.9369 40.4442 91.9382 40.4391Z" fill="#FCFCFC"/>
<path d="M15.6429 26.5372C15.6774 26.536 15.7105 26.5334 15.7449 26.5334C15.713 26.5334 15.6786 26.5347 15.6429 26.5372Z" fill="#FCFCFC"/>
<path d="M16.1872 24.765C16.2318 24.7295 16.2764 24.6927 16.321 24.6585C16.2751 24.6927 16.2318 24.7295 16.1872 24.765Z" fill="#FCFCFC"/>
<path d="M14.8986 26.1392C14.9355 26.0872 14.9725 26.0352 15.0107 25.9845C14.9725 26.0352 14.9368 26.0872 14.8986 26.1392Z" fill="#FCFCFC"/>
<path d="M90.587 40.5709C90.4354 40.5684 90.2824 40.5544 90.1295 40.5215C90.2824 40.5544 90.4341 40.5684 90.587 40.5709Z" fill="#FCFCFC"/>
<path d="M15.6391 25.2581C15.6812 25.2163 15.7219 25.1732 15.764 25.1326C15.7219 25.1732 15.6799 25.2163 15.6391 25.2581Z" fill="#FCFCFC"/>
<path d="M18.4954 23.6532C18.5464 23.6418 18.5948 23.6278 18.6458 23.6164C18.5948 23.6265 18.5451 23.6405 18.4954 23.6532Z" fill="#FCFCFC"/>
<path d="M14.5366 26.6843C14.5366 26.6843 14.547 26.6843 14.5534 26.6843C14.5651 26.6539 14.5741 26.6323 14.5793 26.6196C14.5651 26.6412 14.5508 26.6627 14.5366 26.6843Z" fill="#FCFCFC"/>
<path d="M18.122 23.7533C18.1743 23.7381 18.224 23.7204 18.2762 23.7064C18.224 23.7204 18.173 23.7381 18.122 23.7533Z" fill="#FCFCFC"/>
<path d="M15.3817 25.5332C15.4212 25.4876 15.462 25.4419 15.5027 25.3976C15.462 25.4419 15.4224 25.4876 15.3817 25.5332Z" fill="#FCFCFC"/>
<path d="M15.908 25.002C15.9514 24.9627 15.9934 24.9234 16.038 24.8854C15.9934 24.9222 15.9514 24.9627 15.908 25.002Z" fill="#FCFCFC"/>
<path d="M18.9008 23.5708C18.9441 23.5632 18.9849 23.5543 19.0282 23.5479C18.9849 23.5543 18.9428 23.5632 18.9008 23.5708Z" fill="#FCFCFC"/>
<path d="M30.27 0.320733C29.8328 0.314395 29.3956 0.31693 28.9585 0.320733C27.9197 0.32834 27.6023 0.542585 27.2225 1.51746C25.8039 5.15456 24.3878 8.79419 22.9271 12.5479C22.7933 12.2386 22.6913 12.0231 22.6059 11.8025C21.4486 8.78658 20.3015 5.76814 19.1378 2.75603C18.0455 -0.0735281 18.4559 0.361301 15.4441 0.322001C15.3956 0.322001 15.3472 0.322001 15.2988 0.324537C14.6373 0.358765 14.2587 0.67316 14.2587 1.3628C14.2587 7.10939 14.2587 12.856 14.2562 18.6026C14.2562 19.2605 14.5799 19.5876 15.2312 19.5939C15.9106 19.6015 16.5912 19.6041 17.2705 19.5939C18.0876 19.5825 18.3578 19.3163 18.3629 18.5049C18.3705 17.08 18.3654 15.6564 18.3654 14.2315C18.3654 13.4125 18.3654 12.5936 18.3654 11.7733C19.1735 13.5887 19.8656 15.4092 20.5577 17.2296C21.2587 19.0729 21.2587 19.0475 23.2139 19.0653C24.0373 19.0729 24.5229 18.7559 24.8046 17.989C25.3539 16.4969 25.9492 15.02 26.5266 13.538C26.7827 12.8801 27.0428 12.2234 27.3002 11.5667C27.341 11.5781 27.3818 11.5882 27.4226 11.5997C27.4226 11.7885 27.4226 11.9774 27.4226 12.1663C27.4226 14.2669 27.4175 16.3676 27.4251 18.4682C27.429 19.3239 27.7017 19.5838 28.5621 19.5952C29.0719 19.6015 29.5817 19.5977 30.0916 19.5965C31.3496 19.5952 31.5255 19.424 31.5255 18.1791C31.5267 13.0842 31.5255 7.99045 31.5255 2.89548C31.5255 2.46065 31.5306 2.02582 31.5229 1.59226C31.5051 0.624987 31.2208 0.338482 30.2662 0.324537L30.27 0.320733Z" fill="#F7A41A"/>
<path d="M61.9153 1.82298C62.1741 1.50225 62.4659 1.18152 62.2314 0.721334C62.0147 0.299183 61.6145 0.315663 61.2207 0.316931C60.5171 0.319466 59.811 0.338482 59.1087 0.31186C58.4204 0.285238 57.9029 0.529908 57.4785 1.07503C56.571 2.23753 55.6316 3.37594 54.7037 4.52323C54.148 5.20907 53.591 5.89364 52.9117 6.72907C52.9117 4.84904 52.9142 3.16931 52.9117 1.49084C52.9091 0.55653 52.6835 0.327073 51.7684 0.319466C51.1375 0.314395 50.5053 0.314395 49.8743 0.319466C48.935 0.327073 48.6775 0.585688 48.6762 1.53394C48.6737 4.74508 48.6762 7.95622 48.675 11.1674C48.675 13.6052 48.6724 16.0443 48.6762 18.4821C48.6775 19.353 48.921 19.585 49.8055 19.5926C50.4364 19.5977 51.0686 19.5952 51.6995 19.5926C52.6963 19.5888 52.9015 19.3923 52.913 18.4225C52.9333 16.6604 52.89 14.8957 52.9894 13.1374C53.0684 11.7467 53.9632 11.0241 55.3525 11.0165C56.7431 11.0102 57.3829 11.5832 57.5996 13.0385C57.6416 13.325 57.671 13.6128 57.6901 13.9018C57.7946 15.4675 57.9004 17.0318 57.9922 18.5975C58.0317 19.2757 58.3592 19.6079 59.0526 19.5939C59.732 19.58 60.4126 19.5977 61.0919 19.5901C61.9344 19.58 62.2008 19.2706 62.1435 18.4175C62.0147 16.4918 61.8822 14.5649 61.7713 12.6379C61.6145 9.92753 60.2609 8.33274 57.5894 7.73564C57.4887 7.71282 57.3396 7.7686 57.2911 7.56957C57.3995 7.43139 57.5142 7.27926 57.634 7.13094C59.0615 5.3612 60.4903 3.59273 61.9166 1.82172L61.9153 1.82298Z" fill="#F7A41A"/>
<path d="M43.0337 2.647C42.6959 1.34759 42.6335 0.769507 42.3047 0.513427C42.2639 0.481734 42.218 0.455112 42.1683 0.432293C42.1173 0.409474 42.0625 0.391726 42 0.376513C41.6278 0.287773 41.0301 0.324536 39.9785 0.319466C39.5898 0.319466 39.2023 0.319466 38.8136 0.319466C37.4434 0.319466 37.3389 0.406938 36.9986 1.75579C36.1981 4.93271 35.3913 8.10835 34.5909 11.2865C34.0071 13.5989 33.4246 15.9124 32.8485 18.2273C32.6038 19.2098 32.8995 19.5838 33.9154 19.5939C34.5947 19.6003 35.2753 19.5914 35.9547 19.5964C36.5435 19.6003 36.9144 19.3556 37.0432 18.7559C37.214 17.9547 37.4358 17.165 37.59 16.3612C37.6664 15.9619 37.8067 15.792 38.2464 15.8034C39.3616 15.8351 40.4795 15.8339 41.596 15.8034C41.9949 15.792 42.1491 15.9391 42.2231 16.3016C42.3875 17.1041 42.5825 17.9002 42.7622 18.7002C42.8973 19.3036 43.2619 19.6066 43.8953 19.5964C44.5505 19.5863 45.2056 19.5964 45.862 19.5952C47.0818 19.5926 47.3469 19.2656 47.0474 18.1081C45.7129 12.9536 44.3758 7.80029 43.0363 2.647H43.0337ZM40.7586 12.193C38.602 12.3869 38.602 12.3971 39.0404 10.3231C39.3043 9.07436 39.5707 7.82565 39.8753 6.38932C40.3138 8.31752 40.7012 10.0302 41.0925 11.7416C41.1575 12.0269 41.1129 12.16 40.7586 12.1917V12.193Z" fill="#F7A41A"/>
<path d="M125.291 14.2517C124.177 9.94021 123.054 5.62995 121.954 1.3159C121.779 0.626255 121.424 0.271292 120.685 0.314395C120.443 0.32834 120.201 0.329608 119.957 0.327072C119.714 0.324537 119.472 0.319466 119.228 0.319466C118.791 0.319466 118.355 0.319466 117.918 0.319466C116.745 0.320734 116.557 0.474128 116.274 1.60113C115.385 5.15075 114.494 8.70038 113.601 12.2487C113.101 14.2327 112.59 16.2142 112.093 18.1982C111.839 19.2111 112.143 19.5863 113.199 19.5926C113.855 19.5964 114.51 19.585 115.165 19.5964C115.788 19.6066 116.164 19.3467 116.295 18.7179C116.461 17.9167 116.692 17.1282 116.841 16.3245C116.911 15.9454 117.033 15.7945 117.441 15.8034C118.581 15.83 119.723 15.8364 120.862 15.8009C121.284 15.7869 121.39 15.9758 121.461 16.3169C121.613 17.0471 121.793 17.7722 121.958 18.4999C122.16 19.386 122.402 19.5888 123.29 19.5939C123.945 19.5977 124.601 19.5977 125.256 19.5939C126.278 19.5876 126.562 19.2351 126.316 18.24C125.986 16.9089 125.634 15.5816 125.29 14.2543L125.291 14.2517ZM117.887 12.1575C118.291 10.2711 118.69 8.40753 119.122 6.39059C119.574 8.39612 119.993 10.2571 120.421 12.1575H117.887Z" fill="#FCFCFC"/>
<path d="M119.957 0.327072C119.714 0.324537 119.472 0.319466 119.228 0.319466C119.47 0.319466 119.714 0.324537 119.957 0.327072Z" fill="#FCFCFC"/>
<path d="M104.013 18.1867C104.013 16.3295 104.029 14.4711 104.003 12.6138C103.997 12.1663 104.121 12.0522 104.569 12.0522C105.658 12.0535 106.749 12.1473 107.833 11.9267C110.683 11.3487 112.552 9.01604 112.505 6.06098C112.459 3.12874 110.553 0.875996 107.654 0.453845C105.461 0.134379 103.245 0.370175 101.041 0.324537C99.9488 0.301718 99.7105 0.55653 99.7092 1.63156C99.7067 4.4066 99.7092 7.18038 99.7092 9.95542C99.7092 12.7546 99.7054 15.5524 99.7105 18.3515C99.713 19.3353 99.9756 19.5876 100.965 19.5939C101.499 19.5977 102.033 19.5939 102.566 19.5939C103.804 19.5939 104.012 19.3924 104.012 18.1867H104.013ZM104.49 4.11122C105.07 4.14672 105.654 4.10235 106.234 4.1239C107.506 4.17081 108.279 4.99736 108.263 6.26762C108.248 7.51252 107.487 8.2478 106.193 8.26935C105.927 8.27316 105.66 8.26935 105.394 8.26935C104.335 8.26935 104.071 8.26935 104.005 7.69254C103.983 7.49985 103.983 7.24377 103.983 6.90148C103.983 6.15479 103.998 5.40684 103.977 4.66142C103.965 4.2773 104.049 4.0846 104.491 4.11122H104.49Z" fill="#FCFCFC"/>
<path d="M11.0009 48.2913C10.9627 46.4341 10.9754 44.5757 10.9767 42.7172C10.9767 42.4839 10.8301 42.1746 11.2775 42.1264C12.4348 41.9996 12.9 41.1959 13.1192 40.183C14.0369 35.9526 14.0573 31.6423 14.311 27.3207C14.311 27.3105 14.311 27.3017 14.3123 27.2915C14.0166 27.3093 13.9758 27.4728 13.8993 27.5831C9.35923 34.1879 4.823 40.794 0.285489 47.4001C0.0573389 47.731 -0.118553 48.0606 0.0943017 48.4688C0.196268 48.6653 0.332648 48.7845 0.491971 48.8555H10.8467C10.9665 48.7553 11.006 48.5804 10.9996 48.2913H11.0009Z" fill="#FCFCFC"/>
<path d="M76.4468 15.3204C75.9791 15.0187 75.5024 14.7322 75.0244 14.4457C74.2342 13.9728 74.0111 13.9969 73.3929 14.6587C72.9583 15.1239 72.4918 15.5347 71.8749 15.7451C70.311 16.2776 68.8261 15.5359 68.8006 14.125C68.7522 11.3271 68.7624 8.5267 68.8006 5.72884C68.8159 4.64874 69.5768 3.96417 70.6679 3.89064C71.7627 3.81711 72.6537 4.18095 73.3292 5.07342C73.9193 5.85307 74.303 5.88857 75.0932 5.30795C75.4832 5.02145 75.8682 4.72734 76.2518 4.43196C77.0472 3.82218 77.0969 3.4799 76.5131 2.68884C74.8561 0.447506 71.7576 -0.522302 68.8032 0.275095C66.1329 0.996429 64.555 3.03239 64.5448 5.77828C64.5397 7.15376 64.5448 8.52923 64.5448 9.90471C64.5448 11.3525 64.5308 12.8002 64.5473 14.2479C64.5741 16.5818 65.9162 18.4593 68.1123 19.3061C69.3449 19.7815 70.6258 19.8487 71.9106 19.7143C73.9461 19.5026 75.5903 18.5709 76.768 16.8823C77.246 16.1977 77.1529 15.7743 76.4443 15.3179L76.4468 15.3204Z" fill="#F7A41A"/>
<path d="M64.5461 9.90598C64.5461 11.3537 64.5332 12.8015 64.55 14.2492C64.5332 12.8015 64.5474 11.3537 64.5474 9.90598H64.5461Z" fill="#F7A41A"/>
<path d="M97.4749 0.323269C94.2222 0.314395 90.9694 0.314395 87.7167 0.323269C86.9966 0.325804 86.7161 0.622451 86.706 1.34886C86.6919 2.26542 86.7021 3.18325 86.7021 4.09981C86.7021 8.87913 86.7009 13.6584 86.7034 18.4365C86.7034 19.3467 86.9494 19.585 87.8671 19.5914C88.4496 19.5952 89.0321 19.5939 89.6145 19.5914C90.6329 19.5876 90.8624 19.3695 90.8649 18.368C90.87 16.0988 90.8662 13.8309 90.8662 11.5616C90.8662 9.86034 90.8789 8.15779 90.87 6.45651C90.8675 5.88984 90.8611 5.3219 90.8522 4.75523C90.842 4.15813 90.9949 3.98318 91.6067 3.99713C93.4268 4.03896 95.2469 4.01361 97.0683 4.01234C98.3633 4.01234 98.5048 3.87416 98.5048 2.62038C98.5048 2.20964 98.5099 1.80017 98.5048 1.38942C98.4946 0.605971 98.2396 0.322001 97.4749 0.319466V0.323269Z" fill="#FCFCFC"/>
<path d="M82.1008 0.320734C81.5184 0.315663 80.9346 0.318198 80.3521 0.320734C79.2458 0.324537 79.0202 0.542585 79.0202 1.62522C79.0176 4.40153 79.0202 7.17911 79.0202 9.95542C79.0202 11.3677 79.0202 12.7812 79.0202 14.1934C79.0202 15.6057 79.0202 17.0179 79.0227 18.4314C79.024 19.3366 79.2853 19.5863 80.1953 19.5952C80.7778 19.6003 81.3616 19.5977 81.9441 19.5952C83.0912 19.5926 83.3142 19.3759 83.3155 18.259C83.3168 16.7618 83.3155 15.2646 83.3155 13.7675C83.3155 9.68667 83.3168 5.60587 83.3142 1.52507C83.3142 0.585688 83.0504 0.329608 82.1021 0.320734H82.1008Z" fill="#F7A41A"/>
<path d="M21.6883 30.8843C21.6883 30.4824 21.5863 30.329 21.1606 30.3429C20.3117 30.3721 19.4603 30.3721 18.6114 30.3429C18.1844 30.3277 18.0825 30.4938 18.0723 30.8868C18.0442 31.9238 18.0022 32.962 17.9142 33.9952C17.6899 36.6321 17.6364 39.2956 16.7607 41.9337C18.3221 41.9337 19.8006 41.9223 21.2791 41.9413C21.6653 41.9464 21.6997 41.7676 21.6997 41.4583C21.687 37.9341 21.6781 34.4098 21.687 30.8855L21.6883 30.8843Z" fill="#FCFCFC"/>
<path d="M98.5825 39.9586C99.0873 39.501 99.3587 38.9305 99.3842 38.2396C99.411 37.5335 99.1242 36.9554 98.5443 36.2898C100.229 36.9173 101.552 36.788 102.313 35.1704C102.759 34.2222 102.447 33.085 101.644 32.4207C100.851 31.7641 99.6302 31.6487 98.8005 32.2471C97.3564 33.2891 97.4431 34.6088 98.3773 36.1529C96.8427 35.4988 95.6089 35.817 94.9308 36.8983C94.2859 37.9264 94.5077 39.2639 95.4496 40.0271C96.38 40.7814 97.6967 40.7585 98.5813 39.9573L98.5825 39.9586Z" fill="#FCFCFC"/>
<path d="M23.4459 46.2389C23.4587 45.8751 23.3185 45.799 22.9845 45.8003C21.0229 45.813 19.0601 45.813 17.0985 45.8003C16.7722 45.7977 16.6154 45.8611 16.6295 46.2326C16.6562 46.978 16.6562 47.7259 16.6295 48.4714C16.6231 48.6552 16.6524 48.7756 16.7238 48.8529H23.3516C23.4217 48.7782 23.4536 48.6603 23.4459 48.4764C23.4179 47.731 23.4192 46.9831 23.4459 46.2376V46.2389Z" fill="#FCFCFC"/>
<path d="M92.2427 40.3174C92.1968 40.4657 92.1331 40.5747 91.9636 40.472C92.0222 40.5874 91.9801 40.6622 91.9139 40.7256C91.8986 40.7408 91.8807 40.756 91.8641 40.77C91.8208 40.8054 91.7762 40.8397 91.7482 40.879C91.0204 41.9058 91.102 43.1774 91.9648 44.0381C92.8214 44.8913 94.1686 44.9788 95.1373 44.2435C96.0652 43.5387 96.3469 42.224 95.7873 41.1997C95.2074 40.1361 94.0093 39.7013 92.8022 40.0981C92.727 40.1221 92.6544 40.1982 92.5728 40.2274C92.5371 40.24 92.4989 40.2438 92.4594 40.2299C92.4415 40.2236 92.4237 40.2134 92.4058 40.1995C92.4479 40.3313 92.3319 40.3123 92.2427 40.3174Z" fill="#FCFCFC"/>
<path d="M91.8642 40.7687C91.8823 40.7547 91.8992 40.7395 91.9147 40.7243C91.8992 40.7395 91.881 40.7547 91.8642 40.7687Z" fill="#FCFCFC"/>
<path d="M92.5729 40.2274C92.5372 40.24 92.4989 40.2438 92.4594 40.2299C92.4989 40.2438 92.5372 40.2413 92.5729 40.2274Z" fill="#FCFCFC"/>
<path d="M91.9636 40.4708C92.0222 40.5861 91.9802 40.6609 91.9139 40.7243C91.9789 40.6609 92.0209 40.5861 91.9636 40.4708Z" fill="#FCFCFC"/>
<path d="M103.924 25.8007C103.904 27.1242 105.038 28.255 106.37 28.2372C107.7 28.2208 108.746 27.1546 108.745 25.8222C108.743 24.4861 107.693 23.4364 106.356 23.4326C105.031 23.4288 103.946 24.4861 103.925 25.8007H103.924Z" fill="#FCFCFC"/>
<path d="M90.0721 44.2105C88.7351 44.2169 87.6925 45.2678 87.695 46.6065C87.6963 47.9453 88.7402 48.9937 90.0785 49C91.404 49.0063 92.4874 47.9529 92.5104 46.6357C92.5333 45.2957 91.4346 44.2029 90.0721 44.2093V44.2105Z" fill="#FCFCFC"/>
<path d="M103.216 32.3916C104.545 32.3954 105.625 31.3381 105.636 30.0222C105.647 28.6886 104.523 27.5704 103.19 27.5894C101.867 27.6085 100.816 28.6835 100.821 30.0108C100.826 31.3432 101.876 32.3878 103.216 32.3903V32.3916Z" fill="#FCFCFC"/>
<path d="M107.446 34.2906C107.46 33.2473 106.626 32.3916 105.589 32.3852C104.579 32.3789 103.745 33.1864 103.718 34.1981C103.69 35.2642 104.477 36.0997 105.533 36.1187C106.598 36.139 107.432 35.3416 107.446 34.2906Z" fill="#FCFCFC"/>
<path d="M100.991 42.4941C101.009 41.4355 100.2 40.6013 99.1472 40.5925C98.0995 40.5823 97.248 41.4152 97.2455 42.4522C97.2442 43.4778 98.1173 44.3449 99.1421 44.3322C100.155 44.3208 100.975 43.5057 100.991 42.4941Z" fill="#FCFCFC"/>
<path d="M100.637 38.2041C100.651 39.2208 101.46 40.0182 102.485 40.0271C103.546 40.0359 104.367 39.2246 104.367 38.1686C104.367 37.1202 103.524 36.2797 102.487 36.2924C101.446 36.305 100.623 37.1557 100.638 38.2041H100.637Z" fill="#FCFCFC"/>
<path d="M110.796 30.0514C110.821 29.003 110.005 28.1523 108.96 28.1371C107.906 28.1219 107.074 28.9345 107.066 29.988C107.058 31.0351 107.892 31.8794 108.932 31.8794C109.935 31.8794 110.77 31.0592 110.794 30.0514H110.796Z" fill="#FCFCFC"/>
<path d="M112.58 27.6972C113.626 27.6845 114.436 26.8428 114.417 25.7867C114.399 24.7738 113.579 23.9587 112.57 23.9511C111.534 23.9435 110.69 24.789 110.694 25.8324C110.696 26.8795 111.536 27.7099 112.58 27.6972Z" fill="#FCFCFC"/>
<path d="M95.8867 44.7455C94.8416 44.7468 93.9889 45.5987 94.0029 46.6243C94.0169 47.6296 94.8403 48.4422 95.8574 48.4549C96.9179 48.4688 97.7617 47.6575 97.7693 46.6167C97.777 45.5784 96.9357 44.743 95.8867 44.7443V44.7455Z" fill="#FCFCFC"/>
<path d="M119.133 25.8032C119.119 25.1174 118.546 24.5723 117.854 24.5875C117.163 24.6027 116.61 25.1732 116.628 25.8539C116.645 26.5296 117.235 27.0938 117.906 27.0773C118.588 27.0608 119.147 26.4815 119.133 25.802V25.8032Z" fill="#FCFCFC"/>
<path d="M111.003 35.5127C111.678 35.5343 112.273 34.9777 112.297 34.302C112.321 33.6225 111.773 33.0533 111.077 33.0356C110.366 33.0178 109.814 33.5313 109.795 34.2298C109.776 34.9156 110.319 35.4912 111.005 35.5127H111.003Z" fill="#FCFCFC"/>
<path d="M104.795 42.3242C104.787 41.6269 104.231 41.0831 103.539 41.0958C102.856 41.1084 102.292 41.6865 102.304 42.3609C102.317 43.0379 102.9 43.6008 103.578 43.5919C104.266 43.583 104.802 43.024 104.795 42.3242Z" fill="#FCFCFC"/>
<path d="M115.099 30.0171C115.107 29.3452 114.538 28.7583 113.863 28.7469C113.182 28.7342 112.618 29.2895 112.609 29.9816C112.6 30.689 113.123 31.2265 113.829 31.2341C114.526 31.2417 115.09 30.7017 115.1 30.0171H115.099Z" fill="#FCFCFC"/>
<path d="M108.538 38.1648C108.537 37.4789 107.98 36.9376 107.278 36.9402C106.563 36.9427 106.041 37.465 106.045 38.1749C106.049 38.8734 106.597 39.4236 107.287 39.4186C107.963 39.4135 108.54 38.8367 108.538 38.1635V38.1648Z" fill="#FCFCFC"/>
<path d="M100.473 45.3692C99.7589 45.3528 99.2211 45.8637 99.2058 46.5723C99.1905 47.2822 99.7054 47.8261 100.409 47.8426C101.097 47.8591 101.676 47.3165 101.695 46.6357C101.714 45.9537 101.166 45.3857 100.473 45.3692Z" fill="#FCFCFC"/>
<path d="M115.64 33.2029C115.056 33.1902 114.564 33.6453 114.54 34.2209C114.516 34.8117 115.037 35.3454 115.629 35.3378C116.193 35.3302 116.692 34.8307 116.696 34.2691C116.699 33.6986 116.22 33.2156 115.64 33.2042V33.2029Z" fill="#FCFCFC"/>
<path d="M112.042 38.1927C112.056 37.6222 111.587 37.1316 111.007 37.1113C110.393 37.0897 109.877 37.5829 109.885 38.1813C109.893 38.7403 110.399 39.2423 110.96 39.2449C111.526 39.2474 112.028 38.7593 112.042 38.1927Z" fill="#FCFCFC"/>
<path d="M104.35 45.5315C103.742 45.534 103.268 46.0411 103.297 46.6598C103.325 47.2379 103.824 47.6993 104.395 47.6752C104.966 47.6511 105.435 47.1504 105.422 46.5799C105.409 46.0018 104.926 45.529 104.35 45.5315Z" fill="#FCFCFC"/>
<path d="M123.736 25.821C123.734 25.2175 123.3 24.784 122.692 24.7776C122.084 24.7713 121.64 25.196 121.626 25.7981C121.61 26.4016 122.037 26.858 122.635 26.8808C123.269 26.9049 123.74 26.4523 123.736 25.821Z" fill="#FCFCFC"/>
<path d="M107.686 41.2923C107.086 41.3062 106.647 41.7575 106.653 42.3521C106.66 42.9733 107.148 43.4246 107.779 43.3929C108.361 43.3637 108.816 42.8693 108.789 42.295C108.763 41.7182 108.278 41.2783 107.686 41.2923Z" fill="#FCFCFC"/>
<path d="M118.285 28.9434C117.69 28.9535 117.244 29.4086 117.245 30.0032C117.245 30.6307 117.724 31.0807 118.359 31.0529C118.953 31.0275 119.376 30.5673 119.358 29.9652C119.342 29.3719 118.881 28.9345 118.285 28.9446V28.9434Z" fill="#FCFCFC"/>
<path d="M119.961 33.3728C119.423 33.4235 119.099 33.7582 119.112 34.2805C119.125 34.799 119.441 35.121 119.999 35.1413C120.099 35.1375 120.185 35.1197 120.268 35.0982C120.589 35.0107 120.79 34.7914 120.865 34.4643C120.879 34.406 120.888 34.3439 120.894 34.2792C120.936 33.7949 120.449 33.3284 119.962 33.3741L119.961 33.3728Z" fill="#FCFCFC"/>
<path d="M120.268 35.0969C120.589 35.0094 120.789 34.7901 120.865 34.463C120.789 34.7888 120.591 35.0082 120.268 35.0969Z" fill="#FCFCFC"/>
<path d="M115.726 37.2812C115.188 37.3433 114.881 37.6792 114.903 38.2079C114.926 38.7365 115.253 39.0344 115.764 39.0433C116.297 39.0294 116.688 38.6376 116.684 38.161C116.68 37.6704 116.215 37.2241 115.726 37.2812Z" fill="#FCFCFC"/>
<path d="M107.706 45.7153C107.178 45.7876 106.865 46.1083 106.891 46.6496C106.918 47.1935 107.274 47.4508 107.768 47.4952C108.272 47.4762 108.681 47.0528 108.673 46.5913C108.666 46.1033 108.188 45.6494 107.706 45.7153Z" fill="#FCFCFC"/>
<path d="M128.403 25.8628C128.42 25.3215 128.127 25.0007 127.583 24.9513C127.068 24.9057 126.614 25.3215 126.64 25.8273C126.667 26.3572 126.965 26.6627 127.515 26.7109C128.05 26.6754 128.383 26.413 128.401 25.8628H128.403Z" fill="#FCFCFC"/>
<path d="M123.999 30.0742C124.021 29.5367 123.755 29.2007 123.21 29.1348C122.68 29.0714 122.248 29.4479 122.241 29.9677C122.234 30.5179 122.547 30.798 122.991 30.883C123.552 30.9159 123.981 30.5572 124 30.0742H123.999Z" fill="#FCFCFC"/>
<path d="M111.728 41.4647C111.186 41.4938 110.875 41.7955 110.872 42.3419C110.869 42.8934 111.196 43.1647 111.713 43.2268C112.269 43.1913 112.589 42.9162 112.63 42.3762C112.669 41.8615 112.249 41.4368 111.728 41.4647Z" fill="#FCFCFC"/>
<path d="M132.539 29.5734C132.285 29.581 132.144 29.7255 132.131 29.9728C132.117 30.2529 132.266 30.4101 132.553 30.4494C132.822 30.4215 133.001 30.2656 132.999 29.9981C132.997 29.7306 132.825 29.5645 132.537 29.5734H132.539Z" fill="#FCFCFC"/>
<path d="M127.898 29.5734C127.645 29.5696 127.49 29.7027 127.468 29.9487C127.444 30.2212 127.57 30.4139 127.857 30.4393C128.145 30.4646 128.278 30.2732 128.349 30.0171C128.31 29.7598 128.19 29.5785 127.898 29.5734Z" fill="#FCFCFC"/>
<path d="M124.239 34.6849C124.462 34.6697 124.594 34.5429 124.617 34.2881C124.625 34.0865 124.548 33.942 124.411 33.8697C124.376 33.852 124.339 33.8368 124.297 33.8279C124.267 33.8216 124.236 33.8178 124.202 33.8178C123.933 33.8102 123.749 33.9952 123.747 34.2627C123.744 34.4896 123.879 34.6659 124.138 34.6836C124.174 34.6861 124.207 34.6861 124.239 34.6836V34.6849Z" fill="#FCFCFC"/>
<path d="M124.617 34.2894C124.593 34.5429 124.46 34.6709 124.239 34.6862C124.462 34.6709 124.594 34.5442 124.618 34.2906C124.626 34.0891 124.548 33.9445 124.411 33.8723C124.548 33.9445 124.626 34.0878 124.617 34.2906V34.2894Z" fill="#FCFCFC"/>
<path d="M111.173 46.1552C110.92 46.1996 110.732 46.3112 110.728 46.604C110.725 46.8614 110.887 47.0109 111.115 47.03C111.378 47.0528 111.581 46.9171 111.604 46.6319C111.628 46.3416 111.43 46.2186 111.171 46.154L111.173 46.1552Z" fill="#FCFCFC"/>
<path d="M119.516 41.9084C119.263 41.9426 119.145 42.1112 119.153 42.3508C119.162 42.631 119.322 42.7768 119.627 42.7755C119.893 42.7387 120.049 42.5536 120.017 42.2963C119.987 42.0465 119.811 41.8691 119.517 41.9084H119.516Z" fill="#FCFCFC"/>
<path d="M115.011 46.1882C114.956 46.1717 114.895 46.1654 114.828 46.1692C114.567 46.1869 114.385 46.3568 114.409 46.6408C114.429 46.8829 114.598 47.0274 114.837 47.0312C114.872 47.0312 114.905 47.03 114.935 47.0249C115.12 46.9983 115.239 46.8867 115.273 46.6966C115.279 46.6649 115.282 46.6306 115.283 46.5951C115.273 46.3784 115.172 46.2376 115.011 46.1869V46.1882Z" fill="#FCFCFC"/>
<path d="M115.011 46.1882C115.174 46.2376 115.273 46.3796 115.283 46.5964C115.283 46.6319 115.279 46.6661 115.273 46.6978C115.279 46.6661 115.282 46.6319 115.283 46.5964C115.273 46.3809 115.172 46.2389 115.011 46.1882Z" fill="#FCFCFC"/>
<path d="M124.404 37.7287C124.142 37.7553 123.973 37.9252 124.001 38.2142C124.026 38.4665 124.182 38.5907 124.43 38.5907C124.715 38.5907 124.863 38.4361 124.878 38.0963C124.824 37.8935 124.685 37.6995 124.404 37.7274V37.7287Z" fill="#FCFCFC"/>
<path d="M115.903 41.9071C115.612 41.9337 115.49 42.1251 115.515 42.3952C115.538 42.6386 115.691 42.778 115.944 42.7742C116.235 42.7691 116.349 42.5777 116.395 42.3267C116.321 42.0719 116.196 41.8805 115.903 41.9071Z" fill="#FCFCFC"/>
<path d="M120.072 37.7338C120.041 37.7287 120.009 37.7261 119.975 37.7261C119.702 37.7261 119.529 37.915 119.535 38.1825C119.54 38.4094 119.677 38.5781 119.937 38.592C120.009 38.5958 120.073 38.5895 120.128 38.5743C120.233 38.5438 120.306 38.4779 120.354 38.3816C120.382 38.3258 120.401 38.2599 120.411 38.1825C120.398 37.9417 120.286 37.7718 120.073 37.7338H120.072Z" fill="#FCFCFC"/>
<path d="M132.435 26.2583C132.722 26.2583 132.862 26.0923 132.893 25.7753C132.828 25.5662 132.711 25.3671 132.416 25.3912C132.133 25.414 131.991 25.594 132.011 25.8717C132.029 26.1202 132.184 26.2571 132.435 26.2571V26.2583Z" fill="#FCFCFC"/>
<path d="M128.628 33.8216C128.359 33.838 128.199 34.0168 128.218 34.2995C128.234 34.5505 128.392 34.6823 128.64 34.6849C128.924 34.6887 129.07 34.5315 129.102 34.2171C129.049 33.9914 128.904 33.8038 128.629 33.8203L128.628 33.8216Z" fill="#FCFCFC"/>
<path d="M132.007 25.3925C131.724 25.4102 131.581 25.5928 131.602 25.8717C131.621 26.1201 131.775 26.2571 132.026 26.2583C132.314 26.2583 132.454 26.0935 132.481 25.8172C132.438 25.5484 132.29 25.376 132.007 25.3925Z" fill="#FCFCFC"/>
<path d="M75.0715 45.8003C77.353 45.8104 79.6358 45.8535 81.9148 45.7736C84.5277 45.6824 86.488 44.1903 87.1877 41.8538C87.8594 39.6087 87.528 36.9934 85.1611 35.4417C85.221 35.3656 85.272 35.2832 85.3383 35.2161C86.8448 33.6644 87.2744 31.8566 86.5606 29.8244C85.8685 27.8544 84.3263 26.8922 82.3379 26.6615C79.8512 26.3737 77.3454 26.5702 74.8472 26.5651C74.2252 26.5651 74.0187 27.0481 74.0187 27.6287C74.0226 33.3246 74.0187 39.0192 74.0251 44.7151C74.0251 45.4732 74.3272 45.7952 75.0715 45.799V45.8003ZM78.6582 30.3201C79.0686 30.3442 79.4816 30.3264 79.8933 30.3264C79.8933 30.3315 79.8933 30.3353 79.8933 30.3404C80.3292 30.3404 80.7689 30.3024 81.1997 30.348C82.148 30.4494 82.6362 31.0427 82.6273 32.0163C82.6171 33.0115 82.0779 33.6948 81.1602 33.7544C80.3164 33.8102 79.465 33.7645 78.6187 33.7823C78.3306 33.7886 78.244 33.6808 78.2478 33.4057C78.2605 32.5145 78.2631 31.6233 78.2478 30.7334C78.2427 30.4228 78.3383 30.3024 78.6595 30.3201H78.6582ZM78.2427 41.4672C78.2758 40.8904 78.2516 40.3085 78.2516 39.7291H78.2695C78.2695 39.1257 78.2822 38.5223 78.2644 37.9188C78.2542 37.6006 78.3791 37.498 78.6875 37.5056C79.6333 37.5284 80.5841 37.4827 81.526 37.555C82.561 37.6349 83.2276 38.6351 83.1843 39.9066C83.1435 41.1135 82.4514 41.8957 81.3603 41.9248C80.4872 41.9489 79.6116 41.9147 78.7385 41.9413C78.3676 41.9527 78.221 41.8602 78.244 41.4659L78.2427 41.4672Z" fill="#010101"/>
<path d="M59.0488 45.832C60.6472 46.0018 61.5483 45.425 62.2671 43.9621C63.696 41.0539 65.3491 38.2548 66.9092 35.41C66.9576 35.4227 67.0048 35.4366 67.0532 35.4493C67.0532 35.8094 67.0532 36.1681 67.0532 36.5282C67.0532 39.1587 67.0519 41.7892 67.0532 44.421C67.0532 45.567 67.3017 45.8041 68.4731 45.8079C68.9103 45.8091 69.3474 45.8079 69.7834 45.8079C70.9955 45.8053 71.2185 45.5822 71.2185 44.3665C71.2185 39.1536 71.2185 33.9395 71.2185 28.7266C71.2185 26.541 71.2185 26.5727 69.0097 26.5284C68.0295 26.5081 67.4432 26.8998 66.992 27.7416C65.4243 30.6738 63.8107 33.5832 62.2085 36.4965C62.1065 36.6828 62.053 36.9249 61.7854 37.0555C61.7854 33.8799 61.7892 30.7676 61.7828 27.6541C61.7815 26.8478 61.4935 26.56 60.6994 26.5448C60.1411 26.5334 59.5829 26.5423 59.0246 26.5423C57.8303 26.5448 57.6136 26.754 57.6136 27.9279C57.6136 33.407 57.6136 38.8848 57.6136 44.3639C57.6136 45.5822 57.8469 45.7027 59.0476 45.8307L59.0488 45.832Z" fill="#010101"/>
<path d="M42.9636 45.8053C43.6429 45.8129 44.3223 45.8104 45.0016 45.8028C45.5599 45.7965 45.9104 45.5188 46.0353 44.9737C46.1921 44.2942 46.3884 43.6185 46.4878 42.9314C46.5846 42.2595 46.8357 41.9236 47.5839 42.0212C48.1078 42.0896 48.6495 42.0072 49.1822 42.0199C49.8081 42.0351 50.606 41.7296 51.01 42.1061C51.3962 42.4662 51.4026 43.2496 51.5326 43.8556C51.6498 44.4032 51.7276 44.8 51.827 45.0865C51.8487 45.1499 51.8716 45.2082 51.8958 45.2615C52.1546 45.8206 52.5994 45.8307 54.0002 45.8079C54.3392 45.8079 54.6795 45.8129 55.0186 45.8079C55.9911 45.7901 56.3072 45.4149 56.0675 44.4856C54.603 38.8012 53.1207 33.1205 51.66 27.4348C51.4918 26.7806 51.1145 26.5271 50.4632 26.5398C49.4932 26.5588 48.522 26.5423 47.5521 26.5448C46.5502 26.5474 46.303 26.7489 46.0544 27.7378C45.2909 30.7714 44.5262 33.8038 43.7614 36.8375C43.1267 39.3577 42.4894 41.8767 41.861 44.3982C41.6061 45.4187 41.9057 45.7965 42.961 45.8066L42.9636 45.8053ZM48.0542 36.4115C48.3002 35.1653 48.5743 33.9242 48.8789 32.4803C49.3212 34.4415 49.715 36.1973 50.1165 37.9518C50.1917 38.2801 50.1331 38.4361 49.7443 38.4133C49.0701 38.374 48.1358 38.6338 47.7879 38.2903C47.4131 37.9201 47.9281 37.0581 48.0542 36.4115Z" fill="#010101"/>
<path d="M54.0014 45.8066C52.5994 45.8294 52.1546 45.8206 51.8971 45.2602C52.1558 45.8193 52.6007 45.8294 54.0014 45.8066C54.3405 45.8066 54.6808 45.8117 55.0198 45.8066C54.6808 45.8129 54.3405 45.8066 54.0014 45.8066Z" fill="#010101"/>
<path d="M29.481 44.5807C29.4823 45.5138 29.7627 45.7914 30.6906 45.8053C31.2489 45.8142 31.8071 45.8091 32.3667 45.8066C33.538 45.8028 33.7598 45.581 33.7611 44.3982C33.7636 42.5384 33.7777 40.6799 33.7496 38.8202C33.7432 38.3663 33.8694 38.2459 34.3143 38.2662C35.065 38.3004 35.8208 38.2928 36.5715 38.2586C39.0786 38.1458 41.2467 36.5535 41.9745 34.3172C43.2414 30.4253 40.6107 26.6767 36.4963 26.56C34.6036 26.5068 32.7083 26.5423 30.8142 26.5423C29.7117 26.5423 29.4798 26.7692 29.4785 27.8455C29.4759 30.6218 29.4785 33.3994 29.4785 36.1757C29.4785 38.9761 29.4747 41.7778 29.4798 44.5782L29.481 44.5807ZM34.2875 30.3188C34.3589 30.329 34.4315 30.3341 34.5042 30.3366C34.7221 30.3442 34.9426 30.3265 35.1606 30.3265C35.4027 30.3265 35.6462 30.3239 35.8884 30.3265C37.2241 30.3404 38.0322 31.134 38.0322 32.4321C38.0322 33.7455 37.2522 34.4897 35.8641 34.4909C35.3059 34.4909 34.7476 34.4656 34.1906 34.4833C33.8082 34.496 33.6897 34.3489 33.6974 33.975C33.719 32.962 33.7241 31.9479 33.6961 30.935C33.6833 30.4849 33.7789 30.2517 34.2888 30.3201L34.2875 30.3188Z" fill="#010101"/>
<path d="M91.9463 40.4391L91.9355 40.4561L91.9463 40.4391Z" fill="#010101"/>
<path d="M91.9457 40.4391C91.9534 40.4503 91.9585 40.4603 91.9636 40.4716C91.9585 40.4616 91.9534 40.4503 91.9457 40.4391Z" fill="#010101"/>
<path d="M91.9382 40.4391C91.9382 40.4391 91.9355 40.4496 91.9355 40.4548L91.9463 40.4378C91.9463 40.4378 91.9409 40.4378 91.9382 40.4378V40.4391Z" fill="#010101"/>
<path d="M91.9458 40.4391L91.9355 40.4554C91.9458 40.463 91.9535 40.4655 91.9638 40.4718C91.9587 40.4617 91.9535 40.4504 91.9458 40.4391Z" fill="#010101"/>
<path d="M92.407 40.199C92.407 40.199 92.4011 40.1946 92.3982 40.1931C92.4011 40.1961 92.4041 40.1976 92.407 40.199Z" fill="#010101"/>
<path d="M92.3985 40.1929C92.3882 40.1841 92.3766 40.174 92.3663 40.1627C92.3779 40.174 92.3882 40.1841 92.3985 40.1929Z" fill="#010101"/>
<path d="M92.3663 40.1641C92.3663 40.1641 92.3736 40.1556 92.3765 40.1513C92.3765 40.1513 92.3692 40.1599 92.3663 40.1641Z" fill="#010101"/>
<path d="M92.3882 40.1513C92.3882 40.1513 92.3792 40.1513 92.3753 40.1513C92.3728 40.1551 92.3689 40.1588 92.3663 40.1626L92.3882 40.1513Z" fill="#010101"/>
<path d="M92.2159 40.2857C92.2198 40.297 92.2224 40.3058 92.2288 40.3184L92.2481 40.3033C92.2365 40.2957 92.2262 40.292 92.2159 40.2857Z" fill="#010101"/>
<path d="M105.394 8.27062C104.335 8.27062 104.071 8.27062 104.005 7.69381C104.071 8.27189 104.336 8.27189 105.394 8.27062Z" fill="#010101"/>
<path d="M78.7373 41.9426C79.6103 41.9172 80.486 41.9502 81.3591 41.9261C82.4501 41.897 83.1422 41.1148 83.183 39.9079C83.2263 38.6364 82.5597 37.6361 81.5248 37.5563C80.5829 37.484 79.6333 37.5296 78.6863 37.5068C78.3778 37.4992 78.2529 37.6019 78.2631 37.9201C78.2822 38.5235 78.2682 39.127 78.2682 39.7304H78.2504C78.2504 40.3098 78.2746 40.8904 78.2414 41.4685C78.2185 41.8627 78.3651 41.954 78.736 41.9439L78.7373 41.9426Z" fill="#FCFCFC"/>
<path d="M78.2478 33.4058C78.244 33.6808 78.3307 33.7886 78.6187 33.7823C79.4663 33.7645 80.3165 33.8102 81.1603 33.7544C82.0792 33.6935 82.6171 33.0102 82.6273 32.0163C82.6375 31.0427 82.1481 30.4482 81.1998 30.348C80.769 30.3024 80.3292 30.3404 79.8933 30.3404C79.8933 30.3353 79.8933 30.3315 79.8933 30.3265C79.4816 30.3265 79.0687 30.3442 78.6583 30.3201C78.3358 30.3011 78.2402 30.4215 78.2466 30.7334C78.2631 31.6246 78.2606 32.5158 78.2466 33.4058H78.2478Z" fill="#FCFCFC"/>
<path d="M49.7443 38.4145C50.1331 38.4373 50.1917 38.2801 50.1165 37.9531C49.715 36.1985 49.3212 34.4427 48.8789 32.4816C48.5743 33.9268 48.299 35.1666 48.0542 36.4128C47.9268 37.0593 47.4131 37.9226 47.7878 38.2915C48.1358 38.6351 49.0701 38.3752 49.7443 38.4145Z" fill="#FCFCFC"/>
<path d="M33.6961 33.975C33.6885 34.3489 33.807 34.496 34.1894 34.4833C34.7464 34.4656 35.3059 34.4909 35.8629 34.4909C37.2509 34.4897 38.0322 33.7468 38.031 32.4321C38.031 31.1327 37.2229 30.3404 35.8871 30.3265C35.6449 30.3239 35.4015 30.3265 35.1593 30.3265C34.9414 30.3265 34.7196 30.3442 34.5029 30.3366C34.4303 30.3341 34.3589 30.329 34.2862 30.3188C33.7777 30.2517 33.6808 30.4836 33.6936 30.9337C33.7216 31.9466 33.7165 32.9608 33.6948 33.9737L33.6961 33.975Z" fill="#FCFCFC"/>
<path d="M27.5539 48.8542C27.6814 48.9544 27.921 48.9569 28.3785 48.9569C47.0754 48.9708 65.7709 48.9848 84.4678 48.9987C84.7418 48.9987 85.0069 48.9569 85.2593 48.8834V48.8555H27.5539V48.8542Z" fill="white"/>
<path d="M17.1278 48.9645C17.37 48.9594 17.6122 48.9556 17.8544 48.9544C18.5809 48.9493 19.3074 48.9569 20.0339 48.9569C20.7604 48.9569 21.4869 48.9493 22.2134 48.9544C22.4556 48.9556 22.6978 48.9594 22.9399 48.9645C23.1362 48.9683 23.2688 48.9404 23.3491 48.8555H16.7213C16.799 48.9391 16.929 48.9696 17.1266 48.9645H17.1278Z" fill="white"/>
</g>
<defs>
<clipPath id="clip0_14_443">
<rect width="133" height="49" fill="white"/>
</clipPath>
</defs>
</svg>
